<svg width="30" height="30" viewBox="0 0 30 30" fill="none" xmlns="http://www.w3.org/2000/svg">
<path d="M29.0638 4.31743H22.0458V3.29975C22.0458 1.48026 20.3814 0 18.3356 0H11.6644C9.61859 0 7.95423 1.48026 7.95423 3.29975V4.31743H0.9362C0.416089 4.31743 0 4.6875 0 5.15008C0 5.61266 0.416089 5.98273 0.9362 5.98273H2.62829V25.5469C2.62829 28.0016 4.87517 30 7.63523 30H22.3648C25.1248 30 27.3717 28.0016 27.3717 25.5469V5.98273H29.0638C29.5839 5.98273 30 5.61266 30 5.15008C30 4.6875 29.5839 4.31743 29.0638 4.31743ZM9.82663 3.29975C9.82663 2.39926 10.6519 1.6653 11.6644 1.6653H18.3356C19.3481 1.6653 20.1734 2.39926 20.1734 3.29975V4.31743H9.82663V3.29975ZM25.4993 25.5469C25.4993 27.0826 24.0915 28.3347 22.3648 28.3347H7.63523C5.90846 28.3347 4.50069 27.0826 4.50069 25.5469V5.98273H25.5062V25.5469H25.4993Z" fill="#FAF9F8"/>
<path d="M14.9999 25.3495C15.52 25.3495 15.9361 24.9794 15.9361 24.5168V9.80054C15.9361 9.33796 15.52 8.9679 14.9999 8.9679C14.4798 8.9679 14.0637 9.33796 14.0637 9.80054V24.5107C14.0637 24.9732 14.4798 25.3495 14.9999 25.3495Z" fill="#FAF9F8"/>
<path d="M8.89042 24.4306C9.41053 24.4306 9.82662 24.0606 9.82662 23.598V10.7135C9.82662 10.2509 9.41053 9.88086 8.89042 9.88086C8.37031 9.88086 7.95422 10.2509 7.95422 10.7135V23.598C7.95422 24.0606 8.37725 24.4306 8.89042 24.4306Z" fill="#FAF9F8"/>
<path d="M21.1095 24.4306C21.6297 24.4306 22.0457 24.0606 22.0457 23.598V10.7135C22.0457 10.2509 21.6297 9.88086 21.1095 9.88086C20.5894 9.88086 20.1733 10.2509 20.1733 10.7135V23.598C20.1733 24.0606 20.5894 24.4306 21.1095 24.4306Z" fill="#FAF9F8"/>
</svg>
