<svg width="30" height="30" viewBox="0 0 30 30" fill="none" xmlns="http://www.w3.org/2000/svg">
<path d="M27.6111 18.808C27.1996 18.808 26.866 19.1447 26.866 19.5602V26.2387C26.8646 27.4845 25.8649 28.4941 24.6309 28.4952H3.72529C2.49129 28.4941 1.49157 27.4845 1.49012 26.2387V6.63762C1.49157 5.39211 2.49129 4.38254 3.72529 4.38107H10.3406C10.7521 4.38107 11.0856 4.04435 11.0856 3.62889C11.0856 3.21372 10.7521 2.87671 10.3406 2.87671H3.72529C1.66881 2.87906 0.00232831 4.56148 0 6.63762V26.239C0.00232831 28.3151 1.66881 29.9975 3.72529 29.9999H24.6309C26.6873 29.9975 28.3538 28.3151 28.3561 26.239V19.5602C28.3561 19.1447 28.0226 18.808 27.6111 18.808V18.808Z" fill="#FAF9F8"/>
<path d="M28.1516 0.997074C26.8466 -0.332358 24.731 -0.332358 23.4261 0.997074L10.1789 14.4929C10.0881 14.5854 10.0226 14.7001 9.98837 14.8259L8.24633 21.2332C8.17469 21.4959 8.24749 21.7772 8.43661 21.9701C8.62601 22.1628 8.90214 22.237 9.15999 22.1643L15.4491 20.3892C15.5727 20.3544 15.6852 20.2876 15.776 20.1951L29.0229 6.69895C30.3258 5.36863 30.3258 3.21506 29.0229 1.88474L28.1516 0.997074ZM11.7968 14.9846L22.6386 3.93902L26.1351 7.50122L15.2931 18.5468L11.7968 14.9846ZM11.0984 16.4125L13.8919 19.2587L10.0278 20.3493L11.0984 16.4125ZM27.9729 5.62926L27.1854 6.43152L23.6886 2.86904L24.4763 2.06677C25.2012 1.32832 26.3765 1.32832 27.1013 2.06677L27.9729 2.95443C28.6966 3.69376 28.6966 4.89022 27.9729 5.62926V5.62926Z" fill="#FAF9F8"/>
</svg>
