<svg width="37" height="37" viewBox="0 0 37 37" fill="none" xmlns="http://www.w3.org/2000/svg">
<path d="M23.375 21.5H22.3875L22.0375 21.1625C23.2625 19.7375 24 17.8875 24 15.875C24 11.3875 20.3625 7.75 15.875 7.75C11.3875 7.75 7.75 11.3875 7.75 15.875C7.75 20.3625 11.3875 24 15.875 24C17.8875 24 19.7375 23.2625 21.1625 22.0375L21.5 22.3875V23.375L27.75 29.6125L29.6125 27.75L23.375 21.5V21.5ZM15.875 21.5C12.7625 21.5 10.25 18.9875 10.25 15.875C10.25 12.7625 12.7625 10.25 15.875 10.25C18.9875 10.25 21.5 12.7625 21.5 15.875C21.5 18.9875 18.9875 21.5 15.875 21.5Z" fill="white"/>
</svg>
