<svg width="30" height="30" viewBox="0 0 30 30" fill="none" xmlns="http://www.w3.org/2000/svg">
<path d="M29.1405 14.6259C28.663 14.6259 28.281 15.0381 28.281 15.5533V23.9892C28.281 26.2837 26.5492 28.1454 24.4291 28.1454H5.57088C3.4444 28.1454 1.71902 26.2768 1.71902 23.9892V15.4159C1.71902 14.9007 1.33701 14.4885 0.859508 14.4885C0.382003 14.4885 0 14.9007 0 15.4159V23.9892C0 27.3073 2.50212 30.0002 5.57088 30.0002H24.4291C27.5042 30.0002 30 27.3004 30 23.9892V15.5533C30 15.045 29.618 14.6259 29.1405 14.6259Z" fill="#353D4D"/>
<path d="M10.142 7.48105L14.1403 3.16691V21.9829C14.1403 22.4981 14.5223 22.9103 14.9998 22.9103C15.4773 22.9103 15.8593 22.4981 15.8593 21.9829V3.16691L19.8576 7.48105C20.0231 7.65966 20.2459 7.75583 20.4624 7.75583C20.6852 7.75583 20.9017 7.66653 21.0673 7.48105C21.4047 7.11696 21.4047 6.53304 21.0673 6.16894L15.6046 0.274786C15.4454 0.103045 15.2226 0 14.9998 0C14.7706 0 14.5541 0.0961751 14.3949 0.274786L8.93228 6.16894C8.59484 6.53304 8.59484 7.11696 8.93228 7.48105C9.26335 7.83827 9.81088 7.83827 10.142 7.48105Z" fill="#353D4D"/>
</svg>
